<?xml version="1.0" encoding="UTF-8"?>
<svg version="1.1" xmlns="http://www.w3.org/2000/svg" width="141" height="150">
<path d="M0 0 C0.80308594 -0.020625 1.60617188 -0.04125 2.43359375 -0.0625 C7.11732376 -0.09336478 10.45067876 0.02310533 14.125 3.25 C17.92092589 8.88316036 17.54933131 14.386462 17.51318359 20.92749023 C17.51844055 22.09730438 17.52369751 23.26711853 17.52911377 24.47238159 C17.54230405 28.33458863 17.5335781 32.1963826 17.5234375 36.05859375 C17.52410586 38.74610222 17.52836601 41.43360336 17.53213501 44.12110901 C17.53758639 49.75241558 17.53041804 55.38360397 17.51611328 61.01489258 C17.49979578 67.51332089 17.50507104 74.01146667 17.5215925 80.50988811 C17.53523454 86.10075489 17.53711356 91.69153692 17.52927649 97.28241497 C17.52461378 100.61654468 17.52512419 103.95043575 17.53388596 107.28457451 C17.54151517 111.00428153 17.52987418 114.72344837 17.51318359 118.44311523 C17.52229263 120.08838448 17.52229263 120.08838448 17.53158569 121.76689148 C17.48243679 127.68757858 17.08029037 132.06193772 14.125 137.25 C9.47020981 140.60912694 5.08788694 140.71186198 -0.4375 140.625 C-1.17935547 140.63660156 -1.92121094 140.64820313 -2.68554688 140.66015625 C-7.24596487 140.6357907 -10.13852461 140.11720157 -13.875 137.25 C-17.50651545 133.22939361 -17.99727132 129.58198113 -18.01544189 124.29165649 C-18.02115204 123.29354446 -18.02686218 122.29543243 -18.03274536 121.26707458 C-18.03386322 120.17814407 -18.03498108 119.08921356 -18.03613281 117.96728516 C-18.04109772 116.81566391 -18.04606262 115.66404266 -18.05117798 114.4775238 C-18.06579313 110.66469731 -18.07260008 106.85191241 -18.078125 103.0390625 C-18.08387637 100.39114379 -18.08963411 97.74322508 -18.09539795 95.0953064 C-18.10496387 90.25178843 -18.11086421 85.40827943 -18.1138947 80.56475317 C-18.11837565 73.44296597 -18.13592898 66.32137068 -18.1648953 59.19964182 C-18.18652968 53.688681 -18.19659989 48.17777412 -18.19793582 42.66677129 C-18.19898245 39.37790657 -18.20631146 36.08926334 -18.22275543 32.80043411 C-18.23979643 29.13064241 -18.23794025 25.46131904 -18.23144531 21.79150391 C-18.2406601 20.70662186 -18.24987488 19.62173981 -18.2593689 18.50398254 C-18.22366895 12.0696323 -17.61329159 7.55876901 -13.375 2.4375 C-9.52146969 -0.61321149 -4.64988044 0.02956999 0 0 Z " fill="#B4B2E3" transform="translate(122.875,6.75)"/>
<path d="M0 0 C1.27617188 -0.02416992 1.27617188 -0.02416992 2.578125 -0.04882812 C7.42527508 -0.05260316 10.69101918 0.16684608 14.625 3.3125 C17.91715123 7.07495855 18.74848093 10.20853751 18.76544189 15.13713074 C18.77115204 16.13097778 18.77686218 17.12482483 18.78274536 18.14878845 C18.78386322 19.23817215 18.78498108 20.32755585 18.78613281 21.44995117 C18.79358017 23.17234512 18.79358017 23.17234512 18.80117798 24.92953491 C18.81581363 28.73818557 18.82260457 32.54679456 18.828125 36.35546875 C18.83387605 39.00002545 18.83963379 41.64458213 18.84539795 44.28913879 C18.85496996 49.13015967 18.86086607 53.97117155 18.8638947 58.81220073 C18.86836979 65.92548817 18.88589211 73.03858291 18.9148953 80.15181178 C18.93655784 85.65683894 18.94660148 91.16181208 18.94793582 96.66688138 C18.94898097 99.95135357 18.95628494 103.23560403 18.97275543 106.52004051 C18.98984063 110.18953336 18.98792907 113.8585595 18.98144531 117.52807617 C18.99526749 119.14696999 18.99526749 119.14696999 19.0093689 120.79856873 C18.97507761 127.00485712 18.32955052 131.69045877 15.625 137.3125 C10.47623652 141.53712644 3.94383977 140.76674265 -2.375 140.3125 C-7.19917029 139.79792184 -10.33668597 139.32485618 -13.875 135.875 C-16.02207468 132.20708075 -16.50230671 129.48897506 -16.52217102 125.31582642 C-16.52932632 124.28398727 -16.53648163 123.25214813 -16.54385376 122.18904114 C-16.54654266 121.05754135 -16.54923157 119.92604156 -16.55200195 118.76025391 C-16.55857315 117.56815811 -16.56514435 116.37606232 -16.57191467 115.14784241 C-16.59165904 111.19492229 -16.603313 107.24201543 -16.61328125 103.2890625 C-16.61732949 101.92743281 -16.62144643 100.56580332 -16.62563133 99.20417404 C-16.64467536 92.80815874 -16.65890931 86.41215494 -16.6672433 80.01611674 C-16.67702002 72.63503554 -16.7033538 65.25425389 -16.74374419 57.87327826 C-16.77390255 52.1661779 -16.7887118 46.45916345 -16.79202431 40.75198495 C-16.79437472 37.34403903 -16.80333347 33.93641341 -16.82848549 30.52855301 C-16.85274306 26.7266354 -16.8519361 22.9255059 -16.8449707 19.12353516 C-16.85778076 17.99608383 -16.87059082 16.86863251 -16.88378906 15.70701599 C-16.83278355 8.08625959 -16.83278355 8.08625959 -14.53312683 4.1993103 C-9.56486779 -0.14434652 -6.30354213 -0.02366194 0 0 Z " fill="#6C68CA" transform="translate(21.375,6.6875)"/>
<path d="M0 0 C0.80759766 -0.020625 1.61519531 -0.04125 2.44726562 -0.0625 C7.21063311 -0.09370962 10.30669042 0.18110644 14.1875 3.25 C17.49340926 7.02818201 18.31108439 10.1716428 18.32794189 15.11932373 C18.33365204 16.12303009 18.33936218 17.12673645 18.34524536 18.16085815 C18.34636322 19.26116364 18.34748108 20.36146912 18.34863281 21.49511719 C18.35608017 23.23455093 18.35608017 23.23455093 18.36367798 25.00912476 C18.37831285 28.85504749 18.38510411 32.70092897 18.390625 36.546875 C18.39492263 38.54175931 18.39922078 40.53664362 18.4035995 42.53152776 C18.4154111 48.09175425 18.42294788 53.65197075 18.4263947 59.21220851 C18.43087188 66.3945557 18.44840444 73.57671225 18.4773953 80.75900149 C18.49904341 86.31581724 18.50910069 91.87257947 18.51043582 97.42943692 C18.51148184 100.74573446 18.51880033 104.06181238 18.53525543 107.37807465 C18.55231767 111.08129796 18.55043478 114.78405796 18.54394531 118.48730469 C18.55776749 120.12561752 18.55776749 120.12561752 18.5718689 121.79702759 C18.53940291 127.71399775 18.14150977 132.06548082 15.1875 137.25 C10.53270981 140.60912694 6.15038694 140.71186198 0.625 140.625 C-0.11685547 140.63660156 -0.85871094 140.64820313 -1.62304688 140.66015625 C-6.16733183 140.6358769 -9.14133299 140.18427816 -12.8125 137.25 C-15.61081354 134.15446185 -16.19006863 132.17059732 -16.20690918 128.02590942 C-16.21825897 126.96889832 -16.22960876 125.91188721 -16.24130249 124.82284546 C-16.23837189 123.66845978 -16.23544128 122.5140741 -16.23242188 121.32470703 C-16.24089142 120.10481079 -16.24936096 118.88491455 -16.25808716 117.62805176 C-16.27747944 114.28483731 -16.28323408 110.942181 -16.28133965 107.598948 C-16.2812199 104.80578167 -16.28978563 102.01266749 -16.29811716 99.21951568 C-16.3173503 92.62791644 -16.32023568 86.03644383 -16.31347656 79.44482422 C-16.30683799 72.65091705 -16.32969223 65.85755311 -16.36679029 59.06375611 C-16.39750898 53.22580628 -16.40884494 47.38803099 -16.40495348 41.55000198 C-16.40288789 38.06543674 -16.40833463 34.5812941 -16.43284607 31.09680557 C-16.459291 27.20901548 -16.44536861 23.32193403 -16.42773438 19.43408203 C-16.44099762 18.28374481 -16.45426086 17.13340759 -16.46792603 15.94821167 C-16.37615398 7.24775994 -16.37615398 7.24775994 -13.39904785 3.55099487 C-9.09000615 -0.28233179 -5.55124485 0.03494096 0 0 Z " fill="#8D8AD6" transform="translate(71.8125,6.75)"/>
</svg>
